<svg xmlns="http://www.w3.org/2000/svg" xmlns:xlink="http://www.w3.org/1999/xlink" viewBox="0 0 74.62 74.62"><defs><style>.cls-1{fill:#020202;opacity:0.27;}.cls-1,.cls-5,.cls-6,.cls-7{isolation:isolate;}.cls-2{fill:#fff;}.cls-3{fill:#045;}.cls-4{fill:url(#linear-gradient);}.cls-5{fill:#006680;}.cls-5,.cls-6{opacity:0.66;}.cls-6{fill:#aef;}.cls-7{opacity:0.3;}</style><linearGradient id="linear-gradient" x1="-64.76" y1="950.55" x2="-78.88" y2="1037.71" gradientTransform="matrix(0.51, 0, 0, -0.5, 72.32, 525.48)" gradientUnits="userSpaceOnUse"><stop offset="0" stop-color="#00aad4"/><stop offset="1" stop-color="#2ad4ff"/></linearGradient></defs><g id="Layer_2" data-name="Layer 2"><g id="svg2"><g id="layer1"><g id="g5249"><path id="path5251" class="cls-1" d="M74.62,37.39c0,10.28-3.22,18-10,24.74s-17,12.49-27.33,12.49S17,69.5,10.29,62.76,0,47.67,0,37.39a36.35,36.35,0,0,1,10.93-26A37.5,37.5,0,0,1,37.31.17C47.61.17,57.89,4,64.64,10.76s10,16.36,10,26.63Z"/><path id="path5253" class="cls-2" d="M36,0A36.62,36.62,0,0,0,10.57,11.44C4,18.25-.06,27.42.4,37,.29,49.09,7.55,60.42,18,66.46c9.62,6.16,22.35,7.63,32.73,2.46C62.27,63.66,72.4,53.17,73.21,40.07c1.38-13.18-3.66-27.86-15.84-34.62A40.8,40.8,0,0,0,36,0Z"/><path id="path5255" class="cls-3" d="M35,5.5c-19.13.33-35.14,22-27.61,40.25,6.14,16.56,28.35,25.44,43.83,15.8,11.18-5.82,18.47-18.53,16-31.16A28.36,28.36,0,0,0,42.53,6,36.68,36.68,0,0,0,35,5.5Z"/><path id="path5257" class="cls-4" d="M34.84,5.07c-19.18.55-34.67,22-27.46,39.7C12.94,60.19,33,69.67,48.31,62c11-4.87,19.77-15.84,18.85-28C67.24,22.38,60,10.31,48.11,7A36.19,36.19,0,0,0,34.84,5.07Z"/><path id="path5259" class="cls-5" d="M34.52,65.09A32.74,32.74,0,0,1,10.4,51c-1.54-2.29-1.61-2.7-.25-1.39a35.8,35.8,0,0,0,7.58,5,32.76,32.76,0,0,0,15.69,3.47A34.18,34.18,0,0,0,50.59,54,35.76,35.76,0,0,0,65.93,38.19l.93-2v1.27a24.66,24.66,0,0,1-1.78,7.43c-2.71,6.84-9,13.44-16.42,17.17a28.62,28.62,0,0,1-14.13,3Z"/><path id="path5261" class="cls-6" d="M36.19,4.72c9.64.08,18.85,4.18,24.72,11,1.69,2,1.8,2.32.36,1.24a36.06,36.06,0,0,0-7.82-4A34.67,34.67,0,0,0,37.8,11a35.72,35.72,0,0,0-16.52,4.94A33.3,33.3,0,0,0,7.44,31.32l-.76,1.85L6.59,32a20.89,20.89,0,0,1,1.19-6.85C9.91,18.78,15.6,12.35,22.56,8.45A29.81,29.81,0,0,1,36.19,4.72Z"/><path id="path5263" class="cls-2" d="M23.2,12.63c1.08,1.14-1.82,2.38-4.63,5S14.13,23.16,13,22s.31-4.18,3.12-6.77,5.95-3.77,7-2.62Z"/></g><g id="g5447"><path id="path5443" class="cls-7" d="M48,21.11c-5.87,1.64-12.16,2.16-18,.21A3.38,3.38,0,0,0,25.46,25c-3.33,0-6.56,2.76-5.85,6.33.24,4.57,3.64,10.13,8.86,9.3A15,15,0,0,0,36,47.15c.38,2.34.06,4.1-2.22,5-1.43,1.19-4.32,3.94-2.27,5.63a35.64,35.64,0,0,0,14.76.09c2.24-1.62-.72-4.33-2.14-5.43s-3.48-1.5-2.59-3.81c-.53-2.4,2.81-2.74,3.79-4.66,1.42-1.24,1.65-4,4-3.31,5.52-.55,8.31-7.41,7-12.31-.64-2.43-3.68-2.88-5.31-3.54C51.12,22.92,50.18,20.77,48,21.11ZM25.54,29.44c0,2,.83,5.05.86,6.48-1.65-1.36-2.93-4.16-2.11-6.17A3.28,3.28,0,0,1,25.54,29.44Zm25.56,0c2.44.35.59,3.78.08,5.09-.15.5-2.2,2.44-1.4.81C50.44,33.49,50.62,31.14,51.1,29.46Z"/><path id="rect5403" class="cls-2" d="M47.06,20.9c-1.63,0-4.7,1.49-10.11,1.53-7.85.07-11.71-4.48-11.71,2v.23a8.23,8.23,0,0,0-4.68,1.42c-1.39,1.3-1.3,3.43-1,5.15a10.07,10.07,0,0,0,3.64,6.19,6.47,6.47,0,0,0,4.55.72,14,14,0,0,0,8,7v5h0l-.3.14c-1.53.7-4.08,2.13-5,4.86-.41,1.34,14.53,1.1,14.21.15,0-1.67-3.82-4.58-5.44-5l-.16,0a.41.41,0,0,0,0-.11V45c2.65-1,4.89-3.63,6.53-6.87a8.91,8.91,0,0,0,3.6-.11c2.22-.76,3.57-2.92,4.36-5a8.4,8.4,0,0,0,.26-5.94c-.78-1.54-2.62-2.08-4.22-2.26l-1-.13a1.69,1.69,0,0,1,0-.23c0-2.74-.42-3.54-1.61-3.54Zm-21.77,6A30.46,30.46,0,0,0,26.84,36a3.56,3.56,0,0,1-2.9-.9,8.86,8.86,0,0,1-2.33-5.54A2,2,0,0,1,22.7,27.4a7.57,7.57,0,0,1,2.59-.48Zm23.37,0c1.13.1,2.46.15,3.18,1.14.67,1.72-.11,3.58-.74,5.2S49,36.2,47.22,36l-.58,0a29.71,29.71,0,0,0,2-9Z"/></g></g></g></g></svg>