<svg xmlns="http://www.w3.org/2000/svg" xmlns:xlink="http://www.w3.org/1999/xlink" viewBox="0 0 74.62 74.62"><defs><style>.cls-1{fill:#020202;opacity:0.27;}.cls-1,.cls-5,.cls-6{isolation:isolate;}.cls-2{fill:#fff;}.cls-3{fill:#dc3939;}.cls-4{fill:url(#linear-gradient);}.cls-5{fill:maroon;opacity:0.66;}.cls-6{fill:#ff8080;opacity:0.9;}.cls-7{fill:#faa;}</style><linearGradient id="linear-gradient" x1="-20.49" y1="1402.11" x2="-34.61" y2="1489.27" gradientTransform="matrix(0.5, 0, 0, -0.49, 49.05, 741.14)" gradientUnits="userSpaceOnUse"><stop offset="0" stop-color="#d40000"/><stop offset="1" stop-color="#ff2a2a"/></linearGradient></defs><g id="Layer_2" data-name="Layer 2"><g id="svg2"><g id="layer1"><g id="g9049"><path id="path9051" class="cls-1" d="M74.62,37.39c0,10.28-3.22,18-10,24.74s-17,12.49-27.33,12.49S17,69.5,10.29,62.76,0,47.67,0,37.39a36.35,36.35,0,0,1,10.93-26A37.5,37.5,0,0,1,37.31.17C47.61.17,57.89,4,64.64,10.76s10,16.36,10,26.63Z"/><path id="path9053" class="cls-2" d="M36,0A36.62,36.62,0,0,0,10.57,11.44C4,18.25-.06,27.42.4,37,.29,49.09,7.55,60.42,18,66.46c9.62,6.16,22.35,7.63,32.73,2.46C62.27,63.66,72.4,53.17,73.21,40.07c1.38-13.18-3.66-27.86-15.84-34.62A40.8,40.8,0,0,0,36,0Z"/><path id="path9055" class="cls-3" d="M34.58,5.29C16.09,5.89.88,25.93,6.43,43.57c4.4,16.12,24.22,27,40.08,20.17C57.83,59.22,67.45,48.39,66.94,35.8c.41-11.51-6-23.88-17.31-27.88A35.31,35.31,0,0,0,34.58,5.29Z"/><path id="path9057" class="cls-4" d="M34.51,5.06C15.79,5.62.67,26.8,7.71,44.28c5.42,15.23,25,24.59,39.94,17C58.38,56.53,67,45.69,66.05,33.7c.08-11.54-7-23.45-18.58-26.74A35.23,35.23,0,0,0,34.51,5.06Z"/><path id="path9059" class="cls-5" d="M34.36,65.09a32.6,32.6,0,0,1-24-13.71c-1.54-2.23-1.61-2.63-.25-1.36a35.22,35.22,0,0,0,7.53,4.86,33.11,33.11,0,0,0,15.58,3.38,34.5,34.5,0,0,0,17.06-4A35.15,35.15,0,0,0,65.57,38.87L66.49,37V38.2a23.71,23.71,0,0,1-1.78,7.23C62,52.1,55.74,58.54,48.4,62.16a28.89,28.89,0,0,1-14,2.93Z"/><path id="path9061" class="cls-6" d="M35.56,4.72a32.14,32.14,0,0,1,24.2,11c1.66,2,1.76,2.32.35,1.24a35,35,0,0,0-7.65-4,33.29,33.29,0,0,0-15.32-2A34.39,34.39,0,0,0,21,15.93,33.1,33.1,0,0,0,7.42,31.32l-.74,1.85L6.59,32a21.29,21.29,0,0,1,1.16-6.85c2.09-6.39,7.66-12.82,14.48-16.72A28.66,28.66,0,0,1,35.56,4.72Z"/><path id="path9063" class="cls-7" d="M23.2,12.63c1.08,1.14-1.82,2.38-4.63,5S14.13,23.16,13,22s.31-4.18,3.12-6.77,5.95-3.77,7-2.62Z"/><path id="path9137" class="cls-2" d="M36.15,52.25c-.54-.15-12.58-12.14-13.74-13.68a14.37,14.37,0,0,1-2.19-4.21,7.24,7.24,0,0,1-.32-2.67,8.43,8.43,0,0,1,8.88-8.93,6,6,0,0,1,2.57.41,12.18,12.18,0,0,1,3.78,2.25l1.29,1c.13.09.36,0,.8-.44,2.47-2.28,5.29-3.48,7.66-3.28C49.2,23.1,52,25.37,53,29.21a12.38,12.38,0,0,1,0,4.89,14.9,14.9,0,0,1-2.13,4.26C49.71,39.92,37.57,52.08,37,52.25a1.89,1.89,0,0,1-.82,0Z"/></g></g></g></g></svg>