<svg xmlns="http://www.w3.org/2000/svg" xmlns:xlink="http://www.w3.org/1999/xlink" viewBox="0 0 74.62 74.62"><defs><style>.cls-1{fill:#020202;opacity:0.27;}.cls-1,.cls-5,.cls-6{isolation:isolate;}.cls-2{fill:#fff;}.cls-3{fill:#045;}.cls-4{fill:url(#linear-gradient);}.cls-5{fill:#006680;}.cls-5,.cls-6{opacity:0.66;}.cls-6{fill:#aef;}.cls-7{fill-opacity:0.12;}</style><linearGradient id="linear-gradient" x1="24.56" y1="1035.39" x2="10.44" y2="1122.56" gradientTransform="matrix(0.51, 0, 0, -0.5, 26.77, 567.74)" gradientUnits="userSpaceOnUse"><stop offset="0" stop-color="#00aad4"/><stop offset="1" stop-color="#2ad4ff"/></linearGradient></defs><g id="Layer_2" data-name="Layer 2"><g id="svg2"><g id="layer1"><g id="g5143"><path id="path5145" class="cls-1" d="M74.62,37.39c0,10.28-3.22,18-10,24.74s-17,12.49-27.33,12.49S17,69.5,10.29,62.76,0,47.67,0,37.39a36.35,36.35,0,0,1,10.93-26A37.5,37.5,0,0,1,37.31.17C47.61.17,57.89,4,64.64,10.76s10,16.36,10,26.63Z"/><path id="path5147" class="cls-2" d="M36,0A36.62,36.62,0,0,0,10.57,11.44C4,18.25-.06,27.42.4,37,.29,49.09,7.55,60.42,18,66.46c9.62,6.16,22.35,7.63,32.73,2.46C62.27,63.66,72.4,53.17,73.21,40.07c1.38-13.18-3.66-27.86-15.84-34.62A40.8,40.8,0,0,0,36,0Z"/><path id="path5149" class="cls-3" d="M35,5.5c-19.13.33-35.14,22-27.61,40.25,6.14,16.56,28.35,25.44,43.83,15.8,11.18-5.82,18.47-18.53,16-31.16A28.36,28.36,0,0,0,42.53,6,36.68,36.68,0,0,0,35,5.5Z"/><path id="path5151" class="cls-4" d="M34.84,5.07c-19.18.55-34.67,22-27.46,39.7C12.94,60.19,33,69.67,48.31,62c11-4.87,19.77-15.84,18.85-28C67.24,22.38,60,10.31,48.11,7A36.19,36.19,0,0,0,34.84,5.07Z"/><path id="path5153" class="cls-5" d="M34.52,65.09A32.74,32.74,0,0,1,10.4,51c-1.54-2.29-1.61-2.7-.25-1.39a35.8,35.8,0,0,0,7.58,5,32.76,32.76,0,0,0,15.69,3.47A34.18,34.18,0,0,0,50.59,54,35.76,35.76,0,0,0,65.93,38.19l.93-2v1.27a24.66,24.66,0,0,1-1.78,7.43c-2.71,6.84-9,13.44-16.42,17.17a28.62,28.62,0,0,1-14.13,3Z"/><path id="path5155" class="cls-6" d="M36.19,4.72c9.64.08,18.85,4.18,24.72,11,1.69,2,1.8,2.32.36,1.24a36.06,36.06,0,0,0-7.82-4A34.67,34.67,0,0,0,37.8,11a35.72,35.72,0,0,0-16.52,4.94A33.3,33.3,0,0,0,7.44,31.32l-.76,1.85L6.59,32a20.89,20.89,0,0,1,1.19-6.85C9.91,18.78,15.6,12.35,22.56,8.45A29.81,29.81,0,0,1,36.19,4.72Z"/><path id="path5157" class="cls-2" d="M23.2,12.63c1.08,1.14-1.82,2.38-4.63,5S14.13,23.16,13,22s.31-4.18,3.12-6.77,5.95-3.77,7-2.62Z"/></g><g id="g5023"><path id="path5019" class="cls-7" d="M34.05,21.33c-4.57,2-8.58,5.79-13,8.35-3.58,3-3.22,10.09.59,12.6,4,3,7.7,6.93,11.91,9.49,3.38.6,4.79-4.61,3.94-7.85,6.15-1.51,12.54-.7,18.75-.51,4-1.83,4.1-8.9,2-12.7-2-3.46-6.19-1.06-9.07-1.77-3.85-.07-8,.15-11.67-.1.61-2.91-.35-7.82-3.5-7.51Z"/><path id="rect4027-2" class="cls-2" d="M33.11,21.05a2.58,2.58,0,0,0-1.21.47L20.26,29.36a7.3,7.3,0,0,0,0,9.93l11.64,9.6c1.76,1.44,4.17-1,3.64-5.28-.08-.67-.15-1.34-.22-2,5.65-1.4,12-1.36,18.94-.62,1.58.17,3.25-2.22,3.25-5.81s-1.28-6.48-2.85-6.48H35.3c.07-.63.14-1.27.24-1.9C35.9,24.36,35.08,20.92,33.11,21.05Z"/></g></g></g></g></svg>