<svg xmlns="http://www.w3.org/2000/svg" xmlns:xlink="http://www.w3.org/1999/xlink" viewBox="0 0 74.62 74.62"><defs><style>.cls-1{fill:#020202;opacity:0.27;}.cls-1,.cls-5,.cls-6{isolation:isolate;}.cls-2{fill:#fff;}.cls-3{fill:#045;}.cls-4{fill:url(#linear-gradient);}.cls-5{fill:#006680;}.cls-5,.cls-6{opacity:0.66;}.cls-6{fill:#aef;}.cls-7{fill-opacity:0.25;}</style><linearGradient id="linear-gradient" x1="202.07" y1="1207.32" x2="187.95" y2="1294.49" gradientTransform="matrix(0.51, 0, 0, -0.5, -63.76, 653.35)" gradientUnits="userSpaceOnUse"><stop offset="0" stop-color="#00aad4"/><stop offset="1" stop-color="#2ad4ff"/></linearGradient></defs><g id="Layer_2" data-name="Layer 2"><g id="svg2"><g id="layer1"><g id="g4929"><path id="path4931" class="cls-1" d="M74.62,37.39c0,10.28-3.22,18-10,24.74s-17,12.49-27.33,12.49S17,69.5,10.29,62.76,0,47.67,0,37.39a36.35,36.35,0,0,1,10.93-26A37.5,37.5,0,0,1,37.31.17C47.61.17,57.89,4,64.64,10.76s10,16.36,10,26.63Z"/><path id="path4933" class="cls-2" d="M36,0A36.62,36.62,0,0,0,10.57,11.44C4,18.25-.06,27.42.4,37,.29,49.09,7.55,60.42,18,66.46c9.62,6.16,22.35,7.63,32.73,2.46C62.27,63.66,72.4,53.17,73.21,40.07c1.38-13.18-3.66-27.86-15.84-34.62A40.8,40.8,0,0,0,36,0Z"/><path id="path4935" class="cls-3" d="M35,5.5c-19.13.33-35.14,22-27.61,40.25,6.14,16.56,28.35,25.44,43.83,15.8,11.18-5.82,18.47-18.53,16-31.16A28.36,28.36,0,0,0,42.53,6,36.68,36.68,0,0,0,35,5.5Z"/><path id="path4937" class="cls-4" d="M34.84,5.07c-19.18.55-34.67,22-27.46,39.7C12.94,60.19,33,69.67,48.31,62c11-4.87,19.77-15.84,18.85-28C67.24,22.38,60,10.31,48.11,7A36.19,36.19,0,0,0,34.84,5.07Z"/><path id="path4939" class="cls-5" d="M34.52,65.09A32.74,32.74,0,0,1,10.4,51c-1.54-2.29-1.61-2.7-.25-1.39a35.8,35.8,0,0,0,7.58,5,32.76,32.76,0,0,0,15.69,3.47A34.18,34.18,0,0,0,50.59,54,35.76,35.76,0,0,0,65.93,38.19l.93-2v1.27a24.66,24.66,0,0,1-1.78,7.43c-2.71,6.84-9,13.44-16.42,17.17a28.62,28.62,0,0,1-14.13,3Z"/><path id="path4941" class="cls-6" d="M36.19,4.72c9.64.08,18.85,4.18,24.72,11,1.69,2,1.8,2.32.36,1.24a36.06,36.06,0,0,0-7.82-4A34.67,34.67,0,0,0,37.8,11a35.72,35.72,0,0,0-16.52,4.94A33.3,33.3,0,0,0,7.44,31.32l-.76,1.85L6.59,32a20.89,20.89,0,0,1,1.19-6.85C9.91,18.78,15.6,12.35,22.56,8.45A29.81,29.81,0,0,1,36.19,4.72Z"/><path id="path4943" class="cls-2" d="M23.2,12.63c1.08,1.14-1.82,2.38-4.63,5S14.13,23.16,13,22s.31-4.18,3.12-6.77,5.95-3.77,7-2.62Z"/></g><g id="g4075"><path id="path4067" class="cls-7" d="M30.35,22a5,5,0,0,0-4.82,6.21c.21,6.85-.38,13.84.23,20.63,2,4.61,10.23,3.61,10.57-1.6,1.28-7.35.75-15-.39-22.3A5.48,5.48,0,0,0,30.35,22Z"/><path id="path4069" class="cls-7" d="M44.81,22A5,5,0,0,0,40,28.22c.2,6.85-.38,13.84.23,20.63,2,4.6,10.23,3.64,10.56-1.6,1.29-7.35.77-15-.39-22.3C49.51,22.83,47,21.81,44.81,22Z"/><path id="rect4062" class="cls-2" d="M30.19,21.83a3.86,3.86,0,0,1,3.86,3.57c.84,7.72,1.81,14.79.44,21.06a4.15,4.15,0,0,1-4.3,3.13c-2.39,0-4.31-1.4-4.31-3.13V25c0-1.73,1.92-3.13,4.31-3.13Z"/><path id="path4065" class="cls-2" d="M44.65,21.83c2.39,0,3.68,1.41,3.86,3.13.84,7.72,1.81,15.23.45,21.5a4.16,4.16,0,0,1-4.31,3.13c-2.38,0-4.3-1.4-4.3-3.13V25C40.35,23.23,42.27,21.83,44.65,21.83Z"/></g></g></g></g></svg>