<svg xmlns="http://www.w3.org/2000/svg" xmlns:xlink="http://www.w3.org/1999/xlink" viewBox="0 0 119.63 117.11"><defs><style>.cls-1{fill:#fff;}.cls-2{fill:#ff9100;}.cls-3{fill:url(#linear-gradient);}.cls-4{fill:#683900;}.cls-5{fill:url(#linear-gradient-2);}.cls-6{fill:#08a;}.cls-6,.cls-7{opacity:0.66;}.cls-6,.cls-7,.cls-9{isolation:isolate;}.cls-7{fill:#55faff;}.cls-8{fill:#a9ffe6;}.cls-9{opacity:0.2;}</style><linearGradient id="linear-gradient" x1="376.81" y1="1786.88" x2="402.1" y2="1695.09" gradientTransform="matrix(0.71, 0, 0, -0.73, -222.78, 1320.34)" gradientUnits="userSpaceOnUse"><stop offset="0" stop-color="#ffc100"/><stop offset="1" stop-color="#ff7300"/></linearGradient><linearGradient id="linear-gradient-2" x1="198.53" y1="1710.59" x2="184.41" y2="1797.76" gradientTransform="matrix(0.7, 0, 0, -0.69, -75.71, 1259.98)" gradientUnits="userSpaceOnUse"><stop offset="0" stop-color="#00aad4"/><stop offset="1" stop-color="#2ad4ff"/></linearGradient></defs><g id="Layer_2" data-name="Layer 2"><g id="svg2"><g id="layer1"><g id="g8392"><path id="rect4871" class="cls-1" d="M58.55,0h2.53a58.55,58.55,0,0,1,58.55,58.55h0a58.55,58.55,0,0,1-58.55,58.56H58.55A58.55,58.55,0,0,1,0,58.55H0A58.55,58.55,0,0,1,58.55,0Z"/><path id="path4685" class="cls-2" d="M57.72,6.18C26.8,6.21.33,37,6.23,66.59c4.53,29.2,38.87,50.63,67.94,40.65,21-6.78,38.55-25.92,38.3-48.15.84-20.39-11.1-41.94-31.48-48.84A59.91,59.91,0,0,0,57.72,6.18Z"/><path id="path4809" class="cls-3" d="M57.76,6.56C27.62,6.52,2,39.46,9.55,69.8c5.94,28.77,39.39,48.59,66.22,37,20-7.78,35.72-28.62,33.85-51.2-.4-20.68-14-41.51-34.17-46.57A54.85,54.85,0,0,0,57.76,6.56Z"/><path id="path4687" class="cls-4" d="M57,16.6c-25.49.83-46.45,28.46-38.79,52.77,6.06,22.23,33.38,37.18,55.24,27.81C89.1,91,102.35,76,101.65,58.66c.56-15.86-8.22-32.92-23.86-38.44A48.83,48.83,0,0,0,57,16.6Z"/><path id="path4689" class="cls-5" d="M56.64,16.35c-26.23.78-47.4,30.46-37.54,54.93,7.6,21.34,35,34.45,56,23.89,15-6.72,27-21.9,25.78-38.71C100.94,40.3,91,23.61,74.79,19a49.29,49.29,0,0,0-18.15-2.65Z"/><path id="path4691" class="cls-6" d="M56.82,99.86c-13.72-1.38-26.35-9.74-33.9-22.44-2.17-3.65-2.27-4.3-.35-2.22a50.25,50.25,0,0,0,10.65,8c7.53,4.06,13.31,5.51,22.05,5.53,9.27,0,16-1.81,24.13-6.55C88.46,76.85,96.73,67.2,101,57l1.3-3.14v2a44,44,0,0,1-2.52,11.84C95.94,78.6,87.05,89.14,76.67,95.07c-6.09,3.48-14,5.38-19.85,4.79Z"/><path id="path4693" class="cls-7" d="M57.59,15.82c12.92.11,25.27,5.73,33.14,15.08,2.27,2.69,2.41,3.18.48,1.7a47.63,47.63,0,0,0-10.48-5.43,45.57,45.57,0,0,0-21-2.77,47.06,47.06,0,0,0-22.15,6.78A45.29,45.29,0,0,0,19.05,52.26l-1,2.53-.13-1.58a29.36,29.36,0,0,1,1.59-9.38C22.37,35.08,30,26.27,39.33,20.93a39.4,39.4,0,0,1,18.26-5.11Z"/><path id="path4695" class="cls-8" d="M41.2,26.65c1.48,1.57-2.5,3.27-6.34,6.82s-6.08,7.61-7.57,6,.43-5.71,4.27-9.27,8.15-5.15,9.64-3.59Z"/><path id="path4030-5" class="cls-9" d="M50.05,37.62c-5.56.91-5.76,8.1-5.51,12.52.41,8-.8,16.2.55,24.09.83,4,5.74,6.93,9.3,4.18,7.92-4.78,16.43-8.81,24-14a9,9,0,0,0,.51-13.53c-5.11-4.13-12-5.8-17.73-9-3.67-1.26-7.1-4.3-11.12-4.23Z"/><path id="rect4027-5" class="cls-1" d="M52.73,38.92,75,49.17c5.18,4.29,4.73,9,0,13L52.73,74.66c-3.35,1.88-7-1.23-7-6.87v-22C45.77,42,47.33,36.43,52.73,38.92Z"/></g></g></g></g></svg>