<svg xmlns="http://www.w3.org/2000/svg" xmlns:xlink="http://www.w3.org/1999/xlink" viewBox="0 0 74.62 74.62"><defs><style>.cls-1{fill:#020202;opacity:0.27;}.cls-1,.cls-5,.cls-6,.cls-7{isolation:isolate;}.cls-2{fill:#fff;}.cls-3{fill:#045;}.cls-4{fill:url(#linear-gradient);}.cls-5{fill:#006680;}.cls-5,.cls-6{opacity:0.66;}.cls-6{fill:#aef;}.cls-7{opacity:0.2;}</style><linearGradient id="linear-gradient" x1="116.1" y1="1207.32" x2="101.98" y2="1294.49" gradientTransform="matrix(0.51, 0, 0, -0.5, -19.92, 653.35)" gradientUnits="userSpaceOnUse"><stop offset="0" stop-color="#00aad4"/><stop offset="1" stop-color="#2ad4ff"/></linearGradient></defs><g id="Layer_2" data-name="Layer 2"><g id="svg2"><g id="layer1"><g id="g4947"><path id="path4949" class="cls-1" d="M74.62,37.39c0,10.28-3.22,18-10,24.74s-17,12.49-27.33,12.49S17,69.5,10.29,62.76,0,47.67,0,37.39a36.35,36.35,0,0,1,10.93-26A37.5,37.5,0,0,1,37.31.17C47.61.17,57.89,4,64.64,10.76s10,16.36,10,26.63Z"/><path id="path4951" class="cls-2" d="M36,0A36.62,36.62,0,0,0,10.57,11.44C4,18.25-.06,27.42.4,37,.29,49.09,7.55,60.42,18,66.46c9.62,6.16,22.35,7.63,32.73,2.46C62.27,63.66,72.4,53.17,73.21,40.07c1.38-13.18-3.66-27.86-15.84-34.62A40.8,40.8,0,0,0,36,0Z"/><path id="path4953" class="cls-3" d="M35,5.5c-19.13.33-35.14,22-27.61,40.25,6.14,16.56,28.35,25.44,43.83,15.8,11.18-5.82,18.47-18.53,16-31.16A28.36,28.36,0,0,0,42.53,6,36.68,36.68,0,0,0,35,5.5Z"/><path id="path4955" class="cls-4" d="M34.84,5.07c-19.18.55-34.67,22-27.46,39.7C12.94,60.19,33,69.67,48.31,62c11-4.87,19.77-15.84,18.85-28C67.24,22.38,60,10.31,48.11,7A36.19,36.19,0,0,0,34.84,5.07Z"/><path id="path4957" class="cls-5" d="M34.52,65.09A32.74,32.74,0,0,1,10.4,51c-1.54-2.29-1.61-2.7-.25-1.39a35.8,35.8,0,0,0,7.58,5,32.76,32.76,0,0,0,15.69,3.47A34.18,34.18,0,0,0,50.59,54,35.76,35.76,0,0,0,65.93,38.19l.93-2v1.27a24.66,24.66,0,0,1-1.78,7.43c-2.71,6.84-9,13.44-16.42,17.17a28.62,28.62,0,0,1-14.13,3Z"/><path id="path4959" class="cls-6" d="M36.19,4.72c9.64.08,18.85,4.18,24.72,11,1.69,2,1.8,2.32.36,1.24a36.06,36.06,0,0,0-7.82-4A34.67,34.67,0,0,0,37.8,11a35.72,35.72,0,0,0-16.52,4.94A33.3,33.3,0,0,0,7.44,31.32l-.76,1.85L6.59,32a20.89,20.89,0,0,1,1.19-6.85C9.91,18.78,15.6,12.35,22.56,8.45A29.81,29.81,0,0,1,36.19,4.72Z"/><path id="path4961" class="cls-2" d="M23.2,12.63c1.08,1.14-1.82,2.38-4.63,5S14.13,23.16,13,22s.31-4.18,3.12-6.77,5.95-3.77,7-2.62Z"/></g><g id="g3961"><path id="path3957" class="cls-7" d="M37.3,16.83c-13-.17-22.95,15.78-16.23,26.89,3.19,5.7,9.83,9.16,16.42,9.35q1-4.47,1.87-8.94c-5.53,1.18-12.09-3-11.37-9,.24-5.46,5.41-10.73,11.25-9.54,5.25-.16,9,5.39,8.22,10.19-1.92-1.46-5.82-1.08-5.82,1.84.37,4.24-.79,8.72.42,12.82,1.29,3.26,6,2.9,8,.53,2.52-2.23,6.28-3.36,8.15-6.17.77-2-1.22-3.76-2.88-4.55,2.7-7.56-.06-17-7.43-20.94A20.28,20.28,0,0,0,37.3,16.83Z"/><path id="path3044-9" class="cls-2" d="M36.27,16.4h-.82C23.07,16.31,13.62,31.58,20,42.23c2.93,5.28,8.86,8.53,14.87,8.92l1.45-7a10.67,10.67,0,0,1-8-2.53c-6.83-5.35-1.92-17.8,6.46-18.25h.64c.65,0,1.31,0,2,.06,6.31-.18,10.53,6.81,9,12.51,0,.09,0,.18,0,.27L45,35.43c-2.2-1.25-4.22-.57-4.23,1.12l-.06,11.24c.47,2.67,2.22,3.89,5,2.87l8.94-6.18c2.17-1.5.35-3.33-1.13-4.17l-1.15-.66c2.52-6.78,1.14-15.06-4.91-19.52A18.3,18.3,0,0,0,36.27,16.4Z"/></g></g></g></g></svg>