<svg xmlns="http://www.w3.org/2000/svg" xmlns:xlink="http://www.w3.org/1999/xlink" viewBox="0 0 74.62 74.62"><defs><style>.cls-1{fill:#020202;opacity:0.27;}.cls-1,.cls-5,.cls-6,.cls-7{isolation:isolate;}.cls-2{fill:#fff;}.cls-3{fill:#045;}.cls-4{fill:url(#linear-gradient);}.cls-5{fill:#006680;}.cls-5,.cls-6{opacity:0.66;}.cls-6{fill:#aef;}.cls-7{opacity:0.2;}</style><linearGradient id="linear-gradient" x1="-64.76" y1="1122.48" x2="-78.88" y2="1209.64" gradientTransform="matrix(0.51, 0, 0, -0.5, 72.32, 611.1)" gradientUnits="userSpaceOnUse"><stop offset="0" stop-color="#00aad4"/><stop offset="1" stop-color="#2ad4ff"/></linearGradient></defs><g id="Layer_2" data-name="Layer 2"><g id="svg2"><g id="layer1"><g id="g5071"><path id="path5073" class="cls-1" d="M74.62,37.39c0,10.28-3.22,18-10,24.74s-17,12.49-27.33,12.49S17,69.5,10.29,62.76,0,47.67,0,37.39a36.35,36.35,0,0,1,10.93-26A37.5,37.5,0,0,1,37.31.17C47.61.17,57.89,4,64.64,10.76s10,16.36,10,26.63Z"/><path id="path5075" class="cls-2" d="M36,0A36.62,36.62,0,0,0,10.57,11.44C4,18.25-.06,27.42.4,37,.29,49.09,7.55,60.42,18,66.46c9.62,6.16,22.35,7.63,32.73,2.46C62.27,63.66,72.4,53.17,73.21,40.07c1.38-13.18-3.66-27.86-15.84-34.62A40.8,40.8,0,0,0,36,0Z"/><path id="path5077" class="cls-3" d="M35,5.5c-19.13.33-35.14,22-27.61,40.25,6.14,16.56,28.35,25.44,43.83,15.8,11.18-5.82,18.47-18.53,16-31.16A28.36,28.36,0,0,0,42.53,6,36.68,36.68,0,0,0,35,5.5Z"/><path id="path5079" class="cls-4" d="M34.84,5.07c-19.18.55-34.67,22-27.46,39.7C12.94,60.19,33,69.67,48.31,62c11-4.87,19.77-15.84,18.85-28C67.24,22.38,60,10.31,48.11,7A36.19,36.19,0,0,0,34.84,5.07Z"/><path id="path5081" class="cls-5" d="M34.52,65.09A32.74,32.74,0,0,1,10.4,51c-1.54-2.29-1.61-2.7-.25-1.39a35.8,35.8,0,0,0,7.58,5,32.76,32.76,0,0,0,15.69,3.47A34.18,34.18,0,0,0,50.59,54,35.76,35.76,0,0,0,65.93,38.19l.93-2v1.27a24.66,24.66,0,0,1-1.78,7.43c-2.71,6.84-9,13.44-16.42,17.17a28.62,28.62,0,0,1-14.13,3Z"/><path id="path5083" class="cls-6" d="M36.19,4.72c9.64.08,18.85,4.18,24.72,11,1.69,2,1.8,2.32.36,1.24a36.06,36.06,0,0,0-7.82-4A34.67,34.67,0,0,0,37.8,11a35.72,35.72,0,0,0-16.52,4.94A33.3,33.3,0,0,0,7.44,31.32l-.76,1.85L6.59,32a20.89,20.89,0,0,1,1.19-6.85C9.91,18.78,15.6,12.35,22.56,8.45A29.81,29.81,0,0,1,36.19,4.72Z"/><path id="path5085" class="cls-2" d="M23.2,12.63c1.08,1.14-1.82,2.38-4.63,5S14.13,23.16,13,22s.31-4.18,3.12-6.77,5.95-3.77,7-2.62Z"/></g><g id="g4657"><path id="path4653" class="cls-7" d="M44.09,19.53a2,2,0,0,0-1.4,3.54c4.41,7.19,4.85,17.23.7,24.64-.59,1.47-2.57,3.26-.87,4.57,2.33,1.62,4.87-1.17,5.82-3.47,3.75-6.47,4.84-15.28,1.51-22.3-1.25-2.32-2.09-5.44-4.28-6.76A3.13,3.13,0,0,0,44.09,19.53Zm-10.22.7c-4.51.75-6.59,6.05-9.19,9.62-1.64.25-4.29-.2-4.7,2.31-.42,3.05-.91,7.15,1.4,9.31,1.24.94,3.36-.73,3.89,1.43,2.36,3.41,4.88,8.14,9.05,8.34,1.8-1.26.85-4.31,1.38-6.28.4-8,1-16.29-.68-24.11A1.08,1.08,0,0,0,33.87,20.23ZM38.69,24c-2.18-.16-3.08,3.38-1.47,4.87,2.84,5.36,2,12.39-.91,17.44-.52,3.23,3.85,3.95,4.91,1.32a20.63,20.63,0,0,0,.3-21.71A3,3,0,0,0,38.69,24Z"/><path id="path4638" class="cls-2" d="M43.48,19.25c-.89,0-1.69.51-1.55,1.28l.11.21.06.09c4.1,6.66,5.41,15.08,2.68,22.49a34.73,34.73,0,0,1-3.09,6.45c.31,1,1.74,1.73,3.78-.23,4-5.94,6.08-13.47,4-20.48a32,32,0,0,0-4.16-8.95A2.15,2.15,0,0,0,43.48,19.25ZM33.23,20A.59.59,0,0,0,33,20c-3.92.76-6,5.42-8.14,8.75-1,2.15-4.56-.33-5,2.61-.39,2.57-.61,5.59.6,7.88,1.27,1.51,3.59-.66,4.33,1.67,2.33,3.25,4.49,7.67,8.4,8.42.89-.38.5-2.42.8-3.41.54-8.27,1-16.75-.21-24.94-.15-.39-.14-1-.55-1Zm4.85,3.74a2,2,0,0,0-.33,0c-1.49,0-1.94,2.32-.79,3.41,2.89,5.37,2.44,12.86-.7,17.94-.61,2.18,2.2,2.85,3.19,1.36,3.7-5,4.7-13.18,1.66-19.07-.76-1.49-1.45-3.7-3-3.68Z"/></g></g></g></g></svg>