<svg xmlns="http://www.w3.org/2000/svg" xmlns:xlink="http://www.w3.org/1999/xlink" viewBox="0 0 256.71 61.28"><defs><style>.cls-1{fill:#00aad4;}.cls-2{filter:url(#filter5886);}.cls-3{fill:#0cf;}.cls-4{opacity:0.45;}.cls-5{fill:#80e5ff;}.cls-6{fill:#006680;}</style><filter id="filter5886" name="filter5886"><feGaussianBlur result="feGaussianBlur5888" stdDeviation="1.73"/></filter></defs><g id="Layer_2" data-name="Layer 2"><g id="svg2"><g id="layer1"><g id="g5942"><path id="rect5944" class="cls-1" d="M277.26,31.71h0c0-16.93-11.65-30.65-26-30.65H46.55c-14.36,0-26,13.72-26,30.65h0c0,16.92,11.64,30.64,26,30.64h204.7C265.61,62.35,277.26,48.63,277.26,31.71Z" transform="translate(-20.55 -1.06)"/><g id="g5946" class="cls-2"><path id="path5948" class="cls-3" d="M40.65,5.23C27.43,7.24,21.3,29.06,26.9,43.29c3.15,11.12,13.16,15.8,21.5,13.45,70.18.25,138.41.53,208.57-.18,18.52-7.17,23.3-37.42,2.56-49.48-7.6-3.92-14-.23-21.89-1.57-65.66-.37-131.33.19-197-.28Z" transform="translate(-20.55 -1.06)"/><g id="g5950" class="cls-4"><path id="path5952" class="cls-5" d="M45.81,16.82s17.32-3.93,26.11-4.4c9.23-.49,18.44,1.81,27.67,1.68,8.38-.12,16.68-1.89,25.06-2.26,11.46-.49,28.76,1.66,34.4.11s18.27,2.85,18.27,2.85-10.52.26-15.58.62S151.31,18.11,146,18.15c-6.9.05-13.61-3-20.5-3.27-7.76-.28-15.47,1.76-23.24,2-4.52.13-9-.37-13.56-.38-6.95,0-13.91-.11-20.84.51-4.81.43-10.68,2.37-14.33,2.23C50,18.8,43,18.73,45.81,16.82Z" transform="translate(-20.55 -1.06)"/><path id="path5954" class="cls-5" d="M134,46.66s17.33-3.93,26.11-4.4c9.23-.49,18.44,1.82,27.68,1.69,8.37-.13,16.68-1.9,25.05-2.26,11.46-.5,28.77,1.66,34.41.11s18.26,2.85,18.26,2.85-10.52.25-15.57.61S239.47,48,234.16,48c-6.89,0-13.6-3-20.5-3.27-7.76-.29-15.47,1.75-23.23,2-4.53.13-9.05-.36-13.57-.37-7,0-13.91-.12-20.84.5-4.8.43-10.68,2.38-14.32,2.23-3.59-.42-10.53-.48-7.74-2.4Z" transform="translate(-20.55 -1.06)"/><path id="path5956" class="cls-5" d="M27.31,36.22s17.32-3.93,26.11-4.4c9.23-.49,18.43,1.82,27.67,1.68,8.38-.12,16.68-1.89,25-2.25,11.47-.5,28.77,1.65,34.41.1s18.27,2.85,18.27,2.85-10.52.26-15.58.62-10.43,2.7-15.73,2.73c-6.9.05-13.61-3-20.5-3.27-7.76-.28-15.47,1.76-23.24,2-4.52.13-9-.37-13.57-.38-6.94,0-13.9-.11-20.83.51-4.81.43-10.68,2.38-14.33,2.23-3.59-.42-10.52-.48-7.73-2.4Z" transform="translate(-20.55 -1.06)"/><path id="path5958" class="cls-5" d="M207.42,16.74s7.44-2.31,11.21-2.56c4-.26,7.93,1.19,11.9,1.14,3.6,0,7.17-1.07,10.76-1.26,4.93-.25,12.37,1.13,14.79.22s7.86,1.81,7.86,1.81-4.52.11-6.69.3-4.48,1.6-6.76,1.6c-3,0-5.85-1.89-8.82-2.08-3.33-.21-6.64,1-10,1.1-1.94.06-3.89-.26-5.83-.29a70.31,70.31,0,0,0-9,.22c-2.07.24-4.59,1.4-6.16,1.3-1.54-.28-4.52-.34-3.33-1.5Z" transform="translate(-20.55 -1.06)"/></g></g><rect id="rect5960" class="cls-6" x="66.19" y="9.21" width="159.21" height="41.62" rx="10.41"/></g></g></g></g></svg>